<svg width="800" height="800" viewBox="0 0 800 800" fill="none" xmlns="http://www.w3.org/2000/svg">
<path d="M200 66.6667H600C635.362 66.6667 669.276 80.7143 694.281 105.719C719.286 130.724 733.333 164.638 733.333 200V600C733.333 635.362 719.286 669.276 694.281 694.281C669.276 719.286 635.362 733.333 600 733.333H200C164.638 733.333 130.724 719.286 105.719 694.281C80.7142 669.276 66.6666 635.362 66.6666 600V200C66.6666 164.638 80.7142 130.724 105.719 105.719C130.724 80.7143 164.638 66.6667 200 66.6667ZM200 133.333C182.319 133.333 165.362 140.357 152.86 152.86C140.357 165.362 133.333 182.319 133.333 200V600C133.333 617.681 140.357 634.638 152.86 647.14C165.362 659.643 182.319 666.667 200 666.667H600C617.681 666.667 634.638 659.643 647.14 647.14C659.643 634.638 666.667 617.681 666.667 600V200C666.667 182.319 659.643 165.362 647.14 152.86C634.638 140.357 617.681 133.333 600 133.333H200ZM447.133 400L541.433 494.267C547.688 500.521 551.202 509.005 551.202 517.85C551.202 526.696 547.688 535.179 541.433 541.433C535.179 547.688 526.695 551.202 517.85 551.202C509.004 551.202 500.521 547.688 494.267 541.433L400 447.133L305.733 541.433C299.479 547.688 290.995 551.202 282.15 551.202C273.304 551.202 264.821 547.688 258.567 541.433C252.312 535.179 248.798 526.696 248.798 517.85C248.798 509.005 252.312 500.521 258.567 494.267L352.867 400L258.567 305.733C252.312 299.479 248.798 290.996 248.798 282.15C248.798 273.305 252.312 264.821 258.567 258.567C264.821 252.312 273.304 248.798 282.15 248.798C290.995 248.798 299.479 252.312 305.733 258.567L400 352.867L494.267 258.567C500.521 252.312 509.004 248.798 517.85 248.798C526.695 248.798 535.179 252.312 541.433 258.567C547.688 264.821 551.202 273.305 551.202 282.15C551.202 290.996 547.688 299.479 541.433 305.733L447.133 400Z" fill="white"/>
</svg>
